<svg width="449" height="449" viewBox="0 0 449 449" fill="none" xmlns="http://www.w3.org/2000/svg">
<path d="M232 449C170.47 449 111.46 424.557 67.9512 381.049C24.4428 337.54 0 278.53 0 217C0 123 54 38.72 137.61 2.33005C140.557 1.0458 143.822 0.678872 146.98 1.27709C150.138 1.87531 153.043 3.41093 155.316 5.68386C157.589 7.95679 159.125 10.8616 159.723 14.0199C160.321 17.1781 159.954 20.4433 158.67 23.39C149.07 45.43 144 73.66 144 105C144 215.28 233.72 305 344 305C375.34 305 403.57 299.93 425.61 290.33C428.557 289.046 431.822 288.679 434.98 289.277C438.138 289.875 441.043 291.411 443.316 293.684C445.589 295.957 447.125 298.862 447.723 302.02C448.321 305.178 447.954 308.443 446.67 311.39C410.28 395 326 449 232 449Z" fill="white"/>
</svg>
